/* XPM */
static char *laby[] = {
/* columns rows colors chars-per-pixel */
"29 26 69 1",
"  c black",
". c #010101",
"X c #020202",
"o c gray1",
"O c #040404",
"+ c gray2",
"@ c #060606",
"# c #070707",
"$ c gray3",
"% c #090909",
"& c gray4",
"* c #0C0C0C",
"= c gray6",
"- c gray7",
"; c #131313",
": c gray8",
"> c #161616",
", c gray9",
"< c #181818",
"1 c #191919",
"2 c #1B1B1B",
"3 c gray11",
"4 c #1D1D1D",
"5 c gray12",
"6 c #202020",
"7 c #222222",
"8 c #232323",
"9 c gray15",
"0 c gray16",
"q c #2A2A2A",
"w c gray17",
"e c #2D2D2D",
"r c gray18",
"t c gray20",
"y c gray22",
"u c #393939",
"i c #3A3A3A",
"p c gray23",
"a c gray26",
"s c #434343",
"d c #444444",
"f c gray27",
"g c gray28",
"h c #494949",
"j c #4B4B4B",
"k c gray31",
"l c #505050",
"z c #555555",
"x c gray34",
"c c #5A5A5A",
"v c #5B5B5B",
"b c #5D5D5D",
"n c #5F5F5F",
"m c #6A6A6A",
"M c #6D6D6D",
"N c #6F6F6F",
"B c gray44",
"V c #747474",
"C c gray46",
"Z c gray47",
"A c #797979",
"S c gray48",
"D c #7B7B7B",
"F c #7C7C7C",
"G c gray49",
"H c #7E7E7E",
"J c #7F7F7F",
"K c #808080",
"L c None",
/* pixels */
"LLLLLLLLLLLLLLLLLLLLLLLLLLLLL",
"LLLLLLLLLLLLLL  LLLLLLLLLLLLL",
"LLLLLLLLLLLL@@<5##LLLLLLLLLLL",
"LLLLLLLLLLL.9AKKFq LLLLLLLLLL",
"LLLLLLLLLLL=;HKKKw2LLLLLLLLLL",
"LLLLL LLLL@hZKKKKKz%LLLLLLLLL",
"LLLLLL LLL%kKKKKKKv%LLLLLLLLL",
"LLLLLL  LLLwKKKKKKyOLLLLL LLL",
"LLLLLLL LLL@lKKKKc+LLLLLL LLL",
"LLLLLLLL  LL@4df7@LLLLLL LLLL",
"LLLLLLLLLL  *gpikr#L     LLLL",
"LLLL LLLLLL#nKKKKG% LLLLLLLLL",
"LLLLL LLLLLXHKKKKKqLLLLLLL LL",
"LLLLLL    LoZKKKKK6LLLLLL LLL",
"LLLLLLLLLL +sKKKKNO LLL  LLLL",
"LLLLLLLLLL#*&fCDb-:X    LLLLL",
"LLLLLLLLLL;DB0#o,xKa#LLLLLLLL",
"LLLLLLLLLoMKKKJGKKKJ2LLLLLLLL",
"LLLLLLL  ;KKKKKKKKKKgX  LLLLL",
"LLLLL  L eKKKKKKKKKKb#LL LLLL",
"LLLL  LLL>KKKKKKKKKKj$LLL LLL",
"LLL  LLLLoVKKKKKKKKK8LLLL  LL",
"LL  LLLLLO3JKKKKKKKk@LLLLL LL",
"L  LLLLLLL#2mKKKKSuOLLLLLLL L",
"  LLLLLLLLLLO1tp6@#LLLLLLLL L",
"LLLLLLLLLLLLLLLXLLLLLLLLLLLLL"
};
