<?xml version="1.0" encoding="UTF-8" standalone="no"?>
<!-- Created with Inkscape (http://www.inkscape.org/) -->
<svg
   xmlns:svg="http://www.w3.org/2000/svg"
   xmlns="http://www.w3.org/2000/svg"
   version="1.0"
   width="32"
   height="32"
   id="svg2">
  <defs
     id="defs4" />
  <g
     id="layer1">
    <path
       d="M 27.053571 13.741072 A 5.4910712 6.0267859 0 1 1  16.071429,13.741072 A 5.4910712 6.0267859 0 1 1  27.053571 13.741072 z"
       transform="translate(-11.78571,2.589285)"
       style="fill:gray;fill-opacity:1;stroke:black;stroke-linejoin:bevel;stroke-opacity:1"
       id="path2782" />
    <path
       d="M 24.017859,6.642857 L 20.267857,9.3214286 L 18.571429,13.25"
       style="fill:none;fill-rule:evenodd;stroke:black;stroke-width:1px;stroke-linecap:butt;stroke-linejoin:bevel;stroke-opacity:1"
       id="path2792" />
    <path
       d="M 32.053572 16.508928 A 3.75 3.7053571 0 1 1  24.553572,16.508928 A 3.75 3.7053571 0 1 1  32.053572 16.508928 z"
       transform="translate(-11.78571,-0.178571)"
       style="fill:gray;fill-opacity:1;stroke:black;stroke-linejoin:bevel;stroke-opacity:1"
       id="path2784" />
    <path
       d="M 28.660714 17 A 4.0178571 4.1964288 0 1 1  20.625,17 A 4.0178571 4.1964288 0 1 1  28.660714 17 z"
       transform="translate(-1.428571,-0.803571)"
       style="fill:gray;fill-opacity:1;stroke:black;stroke-linejoin:bevel;stroke-opacity:1"
       id="path2786" />
    <path
       d="M 4.2857143,1.9107139 L 10.267857,7.625 L 10.714286,10.214286"
       style="fill:none;fill-rule:evenodd;stroke:black;stroke-width:1px;stroke-linecap:butt;stroke-linejoin:bevel;stroke-opacity:1"
       id="path2788" />
    <path
       d="M 18.392857,5.5714287 L 15.803572,7.9821429 L 15.089286,12.535714"
       style="fill:none;fill-rule:evenodd;stroke:black;stroke-width:1px;stroke-linecap:butt;stroke-linejoin:bevel;stroke-opacity:1"
       id="path2790" />
    <path
       d="M 10.625,22.178571 L 10.357143,25.392858 L 3.8392857,29.410714"
       style="fill:none;fill-rule:evenodd;stroke:black;stroke-width:1px;stroke-linecap:butt;stroke-linejoin:bevel;stroke-opacity:1"
       id="path2794" />
    <path
       d="M 14.285715,19.767857 L 14.285714,24.589286 L 16.964285,27.982143"
       style="fill:none;fill-rule:evenodd;stroke:black;stroke-width:1px;stroke-linecap:butt;stroke-linejoin:bevel;stroke-opacity:1"
       id="path2796" />
    <path
       d="M 18.035715,20.125 L 19.285714,25.571428 L 22.589285,27.178571"
       style="fill:none;fill-rule:evenodd;stroke:black;stroke-width:1px;stroke-linecap:butt;stroke-linejoin:bevel;stroke-opacity:1"
       id="path2798" />
    <path
       d="M 24.464285,13.964286 L 26.696428,11.732143"
       style="fill:none;fill-rule:evenodd;stroke:black;stroke-width:1px;stroke-linecap:butt;stroke-linejoin:bevel;stroke-opacity:1"
       id="path2800" />
    <path
       d="M 24.732142,18.428573 L 26.696428,20.660716"
       style="fill:none;fill-rule:evenodd;stroke:black;stroke-width:1px;stroke-linecap:butt;stroke-linejoin:bevel;stroke-opacity:1"
       id="path2802" />
    <path
       d="M 27.142857,15.660714 L 28.839286,15.839284"
       style="fill:none;fill-rule:evenodd;stroke:black;stroke-width:1px;stroke-linecap:butt;stroke-linejoin:miter;stroke-opacity:1"
       id="path3689" />
    <path
       d="M 28.571428,16.821429 L 27.321429,17.178572"
       style="fill:none;fill-rule:evenodd;stroke:black;stroke-width:1px;stroke-linecap:butt;stroke-linejoin:miter;stroke-opacity:1"
       id="path3691" />
  </g>
</svg>
