<?xml version="1.0" encoding="UTF-8" standalone="no"?>
<!-- Created with Inkscape (http://www.inkscape.org/) -->
<svg id="svg2" xmlns="http://www.w3.org/2000/svg" height="32" width="32" version="1.0">
 <g id="layer1" stroke-linejoin="miter" fill-rule="evenodd" stroke="#000" stroke-linecap="butt" stroke-width="1px" fill="#5c4f4b">
  <path id="path1" d="M6.7857,6.4643l1.7857,7.4107,1.6966-5.4464h4.196l-5.4461-3.3929-2.2322,1.4286z"/>
  <path id="path2" d="M4.1071,11.375l6.9639-1.4286-1.7853-2.1428-3.75-0.2679-1.4286,3.8393z"/>
  <path id="path3" d="M21.161,22.759l-1.607,4.018,5.446,0.178,2.321-0.803,1.072-3.125-2.322-2.054-4.91,1.786z"/>
  <path id="path4" d="M21.071,28.116l3.125-0.714,0.983-1.964-2.679-1.161-1.429,3.839z"/>
  <path id="path5" d="M6.6071,26.777l2.3215-0.357,0.4464-1.697-3.75-0.268,0.9821,2.322z"/>
  <path id="path6" d="M26.964,6.7321l0.447-1.6964-3.75-0.2678,3.303,1.9642z"/>
 </g>
</svg>
